<svg width="146" height="11" viewBox="0 0 146 11" fill="none" xmlns="http://www.w3.org/2000/svg">
<path d="M9.82516 2.97976V7.60054H12.4687C13.0415 7.60054 13.438 7.55735 13.7464 7.47098C14.0548 7.38462 14.2311 7.21188 14.3192 6.95277C14.4514 6.69366 14.4954 6.34818 14.4954 5.82996V4.87989C14.4954 4.36167 14.4514 3.97301 14.2751 3.7139C14.143 3.45479 13.9227 3.28205 13.6583 3.1525C13.3499 3.02294 12.9534 2.97976 12.4247 2.97976H9.82516ZM7.26974 0.0863698H9.82516V0.906882H13.1296C14.0548 0.906882 14.8038 1.03644 15.3766 1.20918C15.9053 1.4251 16.3459 1.81377 16.6103 2.37517C16.8746 2.89339 17.0068 3.67072 17.0068 4.62078V6.08907C17.0068 6.78003 16.9627 7.34143 16.8306 7.77328C16.6984 8.20513 16.4781 8.59379 16.2137 8.8529C15.9053 9.1552 15.5088 9.32793 15.0241 9.45749C14.5395 9.58704 13.8786 9.67341 13.1296 9.67341H9.82516V10.6235H7.26974V9.67341H3.92126C3.17226 9.67341 2.55544 9.58704 2.02673 9.45749C1.49802 9.32793 1.10148 9.11201 0.837129 8.8529C0.528716 8.55061 0.352479 8.20513 0.220302 7.73009C0.088125 7.29824 0 6.69366 0 6.04588V4.5776C0 3.62753 0.132184 2.8502 0.396538 2.33198C0.660892 1.77058 1.1015 1.38192 1.63021 1.16599C2.20297 0.950067 2.95196 0.863698 3.8772 0.863698H7.22569V0.0863698H7.26974ZM7.26974 2.97976H4.67028C4.14157 2.97976 3.70096 3.02294 3.43661 3.1525C3.1282 3.23887 2.95196 3.45479 2.81978 3.7139C2.6876 3.97301 2.64354 4.36167 2.64354 4.87989V5.82996C2.64354 6.30499 2.6876 6.69366 2.81978 6.95277C2.95196 7.21188 3.1282 7.38462 3.39256 7.47098C3.70097 7.55735 4.09751 7.60054 4.67028 7.60054H7.31381V2.97976H7.26974ZM32.824 10.6235V0.0863698H28.5062L21.9414 8.55061H21.5889V0.0863698H19.0335V10.6667H23.4835L29.9601 2.20243H30.3126V10.6667H32.824V10.6235ZM34.366 0.0863698H45.9976V2.20243H41.4595V10.6667H38.8601V2.15924H34.366V0.0863698ZM47.055 10.6235V0.0863698H49.6105V4.14575H56.2634V0.0863698H58.8629V10.6667H56.2634V6.21862H49.6105V10.6235H47.055ZM60.7133 10.6235V0.0863698H71.7281V2.07287H63.2688V4.40486H71.4637V6.26181H63.2688V8.68016H71.7281V10.6667H60.7133V10.6235ZM82.126 10.6235H77.3236C76.3102 10.6235 75.5172 10.4939 74.9444 10.278C74.3716 10.0621 73.9751 9.67341 73.7548 9.11201C73.5345 8.59379 73.4023 7.81646 73.4023 6.8664V3.88664C73.4023 2.8502 73.5345 2.07287 73.7989 1.51147C74.0632 0.950067 74.4597 0.561403 75.0766 0.345479C75.6493 0.129555 76.4865 0 77.5879 0H81.8176C82.7429 0 83.4918 0.0863698 84.1087 0.302294C84.7255 0.518219 85.1661 0.863698 85.5185 1.4251C85.871 1.94332 86.0032 2.67746 86.0032 3.62753H83.3156C83.3156 3.06613 83.1834 2.67746 82.875 2.46154C82.5666 2.24561 82.082 2.11606 81.377 2.11606H78.0726C77.4558 2.11606 77.0152 2.15924 76.7508 2.24561C76.4424 2.33198 76.2662 2.50472 76.134 2.72065C76.0459 2.97976 75.9577 3.36842 75.9577 3.92982V6.5641C75.9577 7.08232 76.0459 7.51417 76.1781 7.77328C76.3102 8.03239 76.5305 8.24831 76.8389 8.33468C77.1473 8.42105 77.5439 8.46424 78.0726 8.46424H81.377C81.9057 8.46424 82.3022 8.42105 82.5666 8.33468C82.8309 8.24831 83.0512 8.11876 83.1834 7.90283C83.3156 7.68691 83.3597 7.34143 83.3597 6.90958H86.0473C86.0473 7.85965 85.9151 8.63698 85.7389 9.1552C85.5186 9.67341 85.122 10.0189 84.5933 10.278C84.0205 10.5371 83.1834 10.6235 82.126 10.6235ZM93.0967 10.6235V0.0863698H95.6521V4.05938H97.1501L101.864 0.0863698H105.742L99.3972 5.05263L106.006 10.6667H102.217L97.2383 6.13225H95.6521V10.6667H93.0967V10.6235ZM119.312 0.0863698V10.6667H116.756V2.15924H110.72V6.78003C110.72 9.32794 109.707 10.6235 107.636 10.6235H106.535V8.50742C106.975 8.50742 107.328 8.46424 107.548 8.33468C107.768 8.20513 107.945 8.03239 107.989 7.73009C108.077 7.4278 108.121 7.03914 108.121 6.47773V0.0863698H110.103H116.756H119.312ZM130.283 0.0863698H133.323L128.3 8.03239C127.903 8.63698 127.551 9.1552 127.287 9.45749C127.022 9.75978 126.758 10.0189 126.493 10.1916C126.229 10.3644 125.965 10.4939 125.656 10.5371C125.348 10.5803 124.907 10.6235 124.379 10.6235H123.365V8.63698H123.894C124.907 8.63698 125.392 8.42105 125.392 7.9892C125.392 7.85965 125.348 7.68691 125.216 7.51417L120.237 0.0863698H123.277L126.89 6.04588L130.283 0.0863698ZM134.777 0.0863698H144.91V2.07287H137.376V4.23212H142.311C143.192 4.23212 143.853 4.31849 144.381 4.53441C144.91 4.70715 145.307 5.05263 145.527 5.52767C145.791 6.0027 145.923 6.69366 145.923 7.51417C145.923 8.2915 145.791 8.93927 145.527 9.37112C145.263 9.80297 144.866 10.1484 144.381 10.3212C143.853 10.4939 143.192 10.6235 142.311 10.6235H134.732V0.0863698H134.777ZM137.332 6.21862V8.63698H141.782C142.222 8.63698 142.575 8.59379 142.795 8.50742C143.016 8.42105 143.192 8.2915 143.236 8.11876C143.28 7.94602 143.324 7.68691 143.324 7.34143C143.324 7.03914 143.28 6.82321 143.236 6.65047C143.148 6.47773 143.016 6.34818 142.795 6.26181C142.575 6.17544 142.267 6.13225 141.826 6.13225H137.332V6.21862Z" fill="white"/>
</svg>
