<svg width="231" height="48" viewBox="0 0 231 48" fill="none" xmlns="http://www.w3.org/2000/svg">
<path d="M13.6862 17.8963V36.0079H6.36251V11.2302H17.2434C20.131 11.2302 22.349 11.943 23.9393 13.3684C25.697 14.9616 26.5758 16.9739 26.5758 19.4475C26.5758 21.963 25.4877 24.0593 23.3115 25.7782L27.5383 36.0079H19.7962L15.5694 28.0421V21.7115H16.1553C17.7037 21.7115 19.1266 20.9987 19.1266 19.6571C19.1266 18.4832 18.2478 17.8963 16.4482 17.8963H13.6862ZM108.14 17.8963V36.0079H100.775V11.2302H111.656C114.543 11.2302 116.761 11.943 118.352 13.3684C120.109 14.9616 120.988 16.9739 120.988 19.4475C120.988 21.963 119.9 24.0593 117.724 25.7782L121.951 36.0079H114.209L109.982 28.0421V21.7115H110.568C112.116 21.7115 113.539 20.9987 113.539 19.6571C113.539 18.4832 112.618 17.8963 110.861 17.8963H108.14ZM43.8178 20.9568V26.449L36.9545 26.3651C36.2849 26.3651 35.8245 26.449 35.5734 26.6586C35.2805 26.8682 35.1549 27.1617 35.1549 27.6229C35.1549 28.126 35.2805 28.5033 35.5734 28.6291C35.8664 28.7968 36.4104 28.8806 37.2893 28.8806L44.32 28.9645V36.0917L36.4523 36.0079C33.7321 36.0079 31.6396 35.3371 30.2167 34.0793C28.7938 32.7796 28.0824 30.893 28.0824 28.4195V18.6929C28.0824 16.3032 28.752 14.4585 30.0912 13.1588C31.4722 11.8591 33.3554 11.1883 35.8245 11.1883L44.32 11.2722V18.3994L37.5404 18.3155C36.2849 18.3155 35.6153 18.7348 35.6153 19.5314C35.6153 20.0345 35.7827 20.3699 36.0756 20.5376C36.3686 20.7472 36.9126 20.831 37.7078 20.831L43.8178 20.9568ZM64.2403 24.0593H71.7314C71.2292 28.0421 69.8481 31.1865 67.5883 33.3666C65.3284 35.5467 62.3989 36.6367 58.758 36.6367C55.0753 36.6367 51.9784 35.4209 49.5093 32.9054C47.0402 30.4318 45.7847 27.3713 45.7847 23.6819C45.7847 19.9925 47.0402 16.8901 49.593 14.3746C52.1458 11.8591 55.2427 10.6014 58.9673 10.6014C62.6082 10.6014 65.6632 11.8172 68.0905 14.2908C69.7226 15.9258 70.8944 18.1898 71.6058 21.0407C71.6477 21.1664 71.7314 22.0049 71.7732 22.1307H64.324C63.4452 19.4056 61.269 17.8963 58.7999 17.8963C57.2515 17.8963 55.9123 18.4413 54.9079 19.5314C53.9035 20.6214 53.3594 22.0049 53.3594 23.6819C53.3594 25.317 53.8616 26.6586 54.866 27.7067C55.8704 28.7968 57.1259 29.2999 58.6743 29.2999C60.2228 29.2999 61.4782 28.8387 62.3989 27.9164C63.3196 26.994 64.0729 25.7782 64.2403 24.0593ZM86.4624 10.6014C89.9777 10.6014 92.9909 11.901 95.46 14.4585C97.971 17.0159 99.2264 20.0764 99.2264 23.64C99.2264 27.2456 97.971 30.348 95.46 32.8635C92.949 35.379 89.8522 36.6367 86.2531 36.6367C82.6541 36.6367 79.5991 35.379 77.0462 32.8216C74.4934 30.2641 73.2379 27.2036 73.2379 23.5981C73.2379 19.9925 74.5353 16.8901 77.0881 14.3746C79.6409 11.8591 82.7378 10.6014 86.4624 10.6014ZM130.321 18.3575V36.0498H122.955V11.2302H132.539C136.724 11.2302 140.03 12.1945 142.415 14.1231C145.261 16.387 146.642 19.5314 146.642 23.4304C146.642 27.1617 145.428 30.2222 143.001 32.6119C140.574 34.9597 137.477 36.1756 133.669 36.1756C133.292 36.1756 132.79 36.1756 132.078 36.1336C132.078 35.2951 132.078 29.6353 132.078 28.8387C132.455 28.8387 132.664 28.8387 132.664 28.8387C136.975 28.8387 139.109 27.0359 139.109 23.4723C139.109 20.0764 137.017 18.3994 132.79 18.3994H130.321V18.3575ZM0 0V48H152.728V0H0ZM178.156 34.2051C176.398 35.8402 174.222 36.6787 171.627 36.6787C168.238 36.6787 165.392 35.379 163.048 32.8216C160.705 30.2641 159.533 27.1617 159.533 23.4723C159.533 19.7829 160.705 16.7224 163.132 14.2908C165.517 11.8591 168.489 10.6014 172.088 10.6014C173.301 10.6014 174.682 10.8529 176.147 11.356V18.7348C174.975 18.1898 173.929 17.9382 172.967 17.9382C171.251 17.9382 169.828 18.4832 168.74 19.5733C167.652 20.6633 167.108 22.0469 167.108 23.7658C167.108 25.5266 167.61 26.9102 168.614 27.9164C169.619 28.9645 171 29.4676 172.715 29.4676C173.804 29.4676 174.348 29.1322 174.348 28.5033C174.348 28.0002 173.971 27.7906 173.26 27.7906H171.502V22.1726H178.574C180.081 24.0593 180.834 26.0297 180.834 28.126C180.834 30.5157 179.955 32.57 178.156 34.2051ZM202.638 21.2503C202.638 24.185 199.876 28.7129 195.733 29.9707C195.733 30.9769 195.733 36.0498 195.733 36.0498H188.367C188.367 36.0498 188.409 33.3666 188.367 29.9707C184.35 28.7129 181.336 24.2689 181.336 21.2503C181.336 20.1183 181.336 16.5128 181.295 11.2722C182.843 11.2722 186.693 11.2722 188.786 11.2722C188.786 12.6976 188.786 19.9087 188.786 21.2503C188.786 22.7177 190.25 23.7658 192.008 23.7658C193.724 23.7658 195.398 22.8015 195.44 21.2503C195.482 19.741 195.44 11.2302 195.44 11.2302C195.44 11.2302 195.816 11.2302 202.763 11.2302C202.805 15.1712 202.638 18.7348 202.638 21.2503ZM230.468 36.0498H223.102V19.9087C223.102 19.1121 223.06 18.5671 222.893 18.3155C222.767 18.064 222.516 17.9382 222.14 17.9382C221.428 17.9382 221.052 18.5671 221.052 19.7829V36.0498H213.686V19.9087C213.686 19.1121 213.644 18.609 213.477 18.3155C213.351 18.064 213.1 17.9382 212.724 17.9382C212.012 17.9382 211.635 18.609 211.635 19.9087V36.0498H204.27V18.1898C204.27 15.9677 204.94 14.165 206.279 12.7815C207.618 11.356 209.376 10.6852 211.51 10.6852C214.063 10.6852 215.988 11.8591 217.369 14.2069C218.206 12.9492 219.085 12.0687 220.047 11.5237C221.01 10.9787 222.182 10.7271 223.563 10.7271C225.781 10.7271 227.496 11.4399 228.668 12.8234C229.84 14.2069 230.468 16.2612 230.468 18.9025V36.0498ZM86.2531 17.8963C84.7465 17.8963 83.4492 18.4413 82.403 19.5733C81.3567 20.7053 80.8127 22.0469 80.8127 23.5981C80.8127 25.1912 81.3567 26.5328 82.403 27.6229C83.4911 28.7129 84.7465 29.2999 86.2531 29.2999C87.7597 29.2999 89.057 28.7549 90.1033 27.6229C91.1495 26.5328 91.6936 25.1912 91.6936 23.5981C91.6936 22.0049 91.1914 20.6633 90.1033 19.5733C89.057 18.4413 87.7597 17.8963 86.2531 17.8963Z" fill="white"/>
</svg>
