<svg width="14" height="14" viewBox="0 0 14 14" fill="none" xmlns="http://www.w3.org/2000/svg">
<path d="M11.0625 0H2.9375C1.3125 0 0 1.3125 0 2.9375V11.0625C0 12.6875 1.3125 14 2.9375 14H11.0625C12.6875 14 14 12.6875 14 11.0625V2.9375C14 1.3125 12.6875 0 11.0625 0ZM7 10.25C5.125 10.25 3.625 8.75 3.625 6.875C3.625 5 5.125 3.5 7 3.5C8.875 3.5 10.375 5 10.375 6.875C10.375 8.75 8.875 10.25 7 10.25ZM11.25 3.75C10.625 3.75 10.125 3.25 10.125 2.625C10.125 2 10.625 1.5625 11.25 1.5625C11.875 1.5625 12.375 2.0625 12.375 2.6875C12.375 3.3125 11.8125 3.75 11.25 3.75Z" fill="white"/>
</svg>
