<svg width="14" height="18" viewBox="0 0 14 18" fill="none" xmlns="http://www.w3.org/2000/svg">
<path d="M13.6431 14.3156C13.8157 13.8059 13.5532 13.2526 13.057 13.0444C12.5205 12.8194 11.9931 12.5794 11.4657 12.3244C10.9922 12.0856 10.5187 11.8467 10.0528 11.592C9.56749 11.3268 8.94736 11.5155 8.72022 12.0197C8.47164 12.5716 7.7644 12.7332 7.32947 12.3122C5.71452 10.7493 4.39837 8.8539 3.47843 6.75818C3.24337 6.22269 3.62013 5.63293 4.20282 5.58313C4.73271 5.53785 5.10351 5.04058 5.01347 4.51643C4.811 3.33778 4.67639 2.15648 4.60061 0.962983C4.56564 0.412163 4.10399 -0.0189631 3.55241 0.000647422L1.51924 0.0729334L0.954536 0.0858817C0.401434 0.0985639 -0.0388209 0.558758 0.0027359 1.11044C0.551289 8.39273 5.02116 14.8263 11.4632 17.5877C11.9807 17.8095 12.5654 17.5239 12.7422 16.9893L12.9304 16.4202L13.6431 14.3156Z" fill="white"/>
</svg>
