<svg width="20" height="10" viewBox="0 0 20 10" fill="none" xmlns="http://www.w3.org/2000/svg">
<path d="M19.8951 9.0259C19.8696 8.98119 19.8477 8.94287 19.8258 8.91094C19.4793 8.36487 18.8155 7.69107 17.8381 6.89592L17.8162 6.87676L17.8053 6.86718L17.7943 6.8576H17.7834C17.3384 6.48717 17.0576 6.23808 16.9409 6.11035C16.7257 5.86765 16.6783 5.62176 16.795 5.37268C16.8789 5.18427 17.1926 4.7851 17.7323 4.17835C18.0168 3.85582 18.2429 3.59716 18.4107 3.40236C19.6106 2.00367 20.1321 1.10952 19.9717 0.723122L19.9097 0.633708C19.8696 0.57942 19.7601 0.528326 19.5887 0.483619C19.4137 0.438912 19.1912 0.429332 18.9213 0.461265L15.9234 0.480426C15.876 0.464459 15.8067 0.467652 15.7155 0.483619C15.6243 0.502779 15.5805 0.512359 15.5805 0.512359L15.5295 0.534713L15.4894 0.563453C15.4529 0.582614 15.4164 0.614547 15.3763 0.659255C15.3362 0.703962 15.2997 0.758249 15.2742 0.818923C14.9459 1.5534 14.5776 2.23678 14.1582 2.86907C13.9029 3.24589 13.6658 3.57161 13.4506 3.84944C13.2354 4.12726 13.0567 4.32844 12.9108 4.45937C12.7649 4.5903 12.6337 4.69568 12.5133 4.77232C12.3966 4.85216 12.3054 4.88409 12.2434 4.87132C12.1814 4.85854 12.1231 4.84577 12.0647 4.83619C11.9662 4.7819 11.8896 4.70846 11.8313 4.61265C11.7729 4.51685 11.7328 4.3987 11.7109 4.25819C11.689 4.11449 11.6781 3.99314 11.6745 3.88776C11.6708 3.78557 11.6745 3.63867 11.6781 3.45027C11.6854 3.26186 11.689 3.13412 11.689 3.06706C11.689 2.83714 11.6927 2.58486 11.7036 2.31342C11.7146 2.04199 11.7219 1.82803 11.7292 1.67155C11.7365 1.51508 11.7401 1.34583 11.7401 1.17019C11.7401 0.994559 11.7292 0.857244 11.7036 0.755056C11.6781 0.656061 11.6416 0.557067 11.5942 0.464459C11.5468 0.371851 11.4739 0.298403 11.379 0.244116C11.2842 0.193022 11.1675 0.151508 11.0289 0.119574C10.6606 0.0461265 10.1937 0.00780603 9.62477 0.00141928C8.33369 -0.0113542 7.50579 0.0620934 7.13743 0.221762C6.99155 0.288823 6.86025 0.378238 6.74354 0.496393C6.61954 0.630514 6.6013 0.703962 6.69248 0.716735C7.10825 0.771023 7.40367 0.901951 7.57873 1.10952L7.64073 1.2181C7.68815 1.29793 7.73921 1.43844 7.78662 1.63643C7.83403 1.83761 7.86686 2.05795 7.88144 2.30065C7.91427 2.74453 7.91427 3.12454 7.88144 3.44069C7.84497 3.75683 7.81215 4.00272 7.78297 4.17835C7.75015 4.35399 7.70638 4.49769 7.64073 4.60627C7.57873 4.71484 7.53497 4.7819 7.51673 4.80745C7.49485 4.833 7.48026 4.84577 7.46567 4.85216C7.37449 4.8809 7.28332 4.89686 7.18484 4.89686C7.08637 4.89686 6.96966 4.85535 6.83107 4.76913C6.69248 4.68291 6.5466 4.56795 6.40071 4.41786C6.25118 4.26777 6.08341 4.0602 5.89376 3.79196C5.70776 3.52371 5.51081 3.20757 5.31022 2.84352L5.14245 2.57847C5.03668 2.40922 4.89445 2.16014 4.71574 1.83442C4.53338 1.50869 4.37655 1.19574 4.23796 0.889178C4.18326 0.761443 4.09937 0.665641 3.98631 0.598581L3.93525 0.56984C3.90243 0.544293 3.84407 0.518746 3.76748 0.493199C3.69089 0.464459 3.61066 0.445299 3.52677 0.432525L0.674719 0.451685C0.382948 0.451685 0.186004 0.509166 0.0802368 0.624128L0.0401184 0.678415C0.0109414 0.719929 0 0.767829 0 0.83489C0 0.901951 0.0218828 0.984979 0.0620012 1.08078C0.477774 1.9398 0.933665 2.76369 1.42238 3.56203C1.9111 4.36038 2.33781 4.99905 2.69888 5.48445C3.05994 5.96984 3.4283 6.42968 3.80396 6.86079C4.17961 7.2919 4.42761 7.56972 4.54797 7.69107C4.66832 7.81242 4.7668 7.90502 4.83609 7.9657L5.09504 8.18604C5.26281 8.33294 5.50716 8.50538 5.82811 8.70975C6.15271 8.91413 6.51012 9.11531 6.90037 9.3133C7.29426 9.51129 7.75015 9.67096 8.26804 9.7955C8.78958 9.92004 9.29653 9.97114 9.78889 9.94559H10.9852C11.2295 9.92643 11.4119 9.85937 11.5359 9.74441L11.576 9.6997C11.6052 9.66457 11.6307 9.60709 11.6526 9.53045C11.6781 9.45381 11.689 9.37078 11.689 9.27818C11.6818 9.01632 11.7036 8.78001 11.7583 8.57244C11.8094 8.36168 11.8678 8.2052 11.9371 8.09982C12.0027 7.99444 12.0793 7.90502 12.1595 7.83158C12.2434 7.75813 12.3018 7.71342 12.3382 7.70065C12.3711 7.68468 12.4002 7.6751 12.4221 7.66871C12.5899 7.62081 12.7832 7.66871 13.0093 7.80922C13.2354 7.95292 13.447 8.12856 13.6439 8.33932C13.8409 8.55009 14.0779 8.7832 14.3587 9.04506C14.6359 9.30692 14.8803 9.50171 15.0882 9.62945L15.2961 9.73802C15.4346 9.81147 15.617 9.87853 15.8395 9.93921C16.062 9.99988 16.2553 10.0158 16.423 9.98391L19.0891 9.94878C19.3517 9.94878 19.5596 9.91046 19.7018 9.83382C19.8477 9.75718 19.9352 9.67415 19.9607 9.58155C19.9899 9.48894 19.9899 9.38675 19.9644 9.27179C19.9425 9.15364 19.917 9.0738 19.8951 9.0259Z" fill="white"/>
</svg>
